Coordinates
version=1
nRows=8
nColumns=36
inDegrees=yes

Units are S.I. units (second, meters, Newtons, ...)
If the header above contains a line with 'inDegrees', this indicates whether rotational values are in degrees (yes) or radians (no).

endheader
time	pelvis_tilt	pelvis_list	pelvis_rotation	pelvis_tx	pelvis_ty	pelvis_tz	hip_flexion_r	hip_adduction_r	hip_rotation_r	knee_angle_r	knee_angle_r_beta	ankle_angle_r	subtalar_angle_r	mtp_angle_r	hip_flexion_l	hip_adduction_l	hip_rotation_l	knee_angle_l	knee_angle_l_beta	ankle_angle_l	subtalar_angle_l	mtp_angle_l	lumbar_extension	lumbar_bending	lumbar_rotation	arm_flex_r	arm_add_r	arm_rot_r	elbow_flex_r	pro_sup_r	arm_flex_l	arm_add_l	arm_rot_l	elbow_flex_l	pro_sup_l
      0.00000000	     -0.41770763	     -5.15916090	    -12.14558673	      1.59890340	      0.92262108	     -0.02318037	     38.12229110	      2.27075880	      4.68027499	     12.83225783	      0.22396515	    -15.09831676	    -24.79712863	     -6.65462364	     -2.11770373	      1.43393468	      7.54244831	      6.62482003	      0.11562492	     11.60719728	    -11.61004076	     -6.65462364	     -3.14471635	     -1.05008425	     -3.74481380	     20.45486988	      2.51151509	     55.45613682	    112.12933649	     77.67541688	     34.64573469	      2.24577971	     71.80813388	    118.66939557	     74.47680793
      0.01666670	     -1.28604495	     -5.48763188	     -9.50402760	      1.60166353	      0.91541086	     -0.02163614	     38.20701938	      1.15077653	      0.40612015	      8.77180734	      0.15309692	     -6.38277114	     -9.49975300	     -6.95010417	     -0.49318462	      0.61997297	      8.71825500	      9.38100351	      0.16372940	     11.78676308	    -12.82504040	     -6.95010417	     -2.05181505	     -1.13591524	     -4.87117647	     21.69198330	     -0.91170519	     61.37722893	    117.16264552	     88.43572359	     36.57732647	      0.13872056	     69.13469665	    124.69467773	     97.46545193
      0.03333330	     -2.33001675	     -5.29560590	     -8.72101258	      1.59886085	      0.90857558	     -0.01799191	     38.70840867	      0.74552658	     -1.81697556	      5.21794779	      0.09107037	     -3.96626208	     -3.59441955	     -7.11181073	      1.99461043	      0.44871073	      7.39304543	     12.12087354	      0.21154915	     13.53390750	    -11.71349688	     -7.11181073	      0.28256783	     -1.12672849	     -6.21496598	     22.25591360	      0.24113348	     61.62881007	    116.78365189	     93.90332596	     36.85354651	     -1.31963782	     68.24082807	    126.45326265	    102.22283649
      0.05000000	     -1.13543029	     -6.03318237	     -8.00600534	      1.59731419	      0.90963076	     -0.01915485	     38.08198330	      0.81903130	     -4.00136951	      5.44771136	      0.09508050	     -1.89956937	     -0.56409158	     -7.12432623	      1.73517617	     -0.07251820	      6.60613048	     13.74231696	      0.23984868	     16.53132675	     -9.92842364	     -7.12432623	     -0.85414180	     -0.61236226	     -6.96834918	     23.45973735	      0.81548373	     61.09733130	    116.47097902	     94.23534758	     38.50631976	     -1.39809920	     68.05070044	    126.19065939	    102.06764010
      0.06666670	      0.10045072	     -6.68204673	     -7.76834203	      1.59609794	      0.91373514	     -0.02091812	     37.93173211	      1.01459436	     -5.33359160	      6.87350665	      0.11996532	     -2.05054210	      0.53951200	     -7.13440723	      0.97767820	     -0.35009480	      5.80986531	     14.74561282	      0.25735949	     18.06121370	     -9.56622359	     -7.13440723	     -2.42265464	      0.01694150	     -7.23017031	     24.44765785	      1.15147522	     61.41436735	    115.87227063	     94.60007196	     39.48678312	     -1.38670933	     67.53719004	    125.57415541	    101.70890521
      0.08333330	      1.23267435	     -6.98429381	     -7.43099937	      1.59418392	      0.91599097	     -0.02149025	     38.17302836	      0.85006151	     -6.21087741	      8.63999713	      0.15079640	     -3.48559456	      0.77088302	     -7.13953127	      0.32677399	     -0.36835215	      5.25471734	     15.44268339	      0.26952567	     18.67661035	     -9.75249136	     -7.13953127	     -3.95706624	      0.17007343	     -7.45086048	     24.99421457	      1.47671029	     61.47200475	    115.40191674	     94.77845315	     40.39494550	     -1.29763025	     67.17156065	    125.30734974	    101.41428665
      0.10000000	      2.42418374	     -7.21341209	     -7.12883227	      1.59269615	      0.91772074	     -0.02258611	     38.24868692	      0.59321254	     -6.73901159	     10.20014118	      0.17802605	     -5.13363493	      0.53182764	     -7.14839235	     -0.60516931	     -0.33833645	      4.89232537	     15.82030653	      0.27611644	     18.93071056	     -9.48337268	     -7.14839235	     -5.67154319	      0.46961987	     -7.58110335	     25.60980338	      1.69032246	     61.76879967	    115.29471110	     95.04213135	     41.22034664	     -1.31272030	     66.89660687	    125.16191790	    100.77754707
      0.11666670	      3.09518151	     -7.24335501	     -6.82305044	      1.59066456	      0.91690634	     -0.02259685	     39.00139305	      0.20031183	     -6.92053493	     11.92100361	      0.20806076	     -6.67015308	     -0.13192992	     -7.16733019	     -0.88342302	     -0.24840022	      4.59513916	     16.29814188	      0.28445624	     19.08521182	     -9.45196536	     -7.16733019	     -6.64392401	      0.51340622	     -7.61701772	     25.97640581	      1.95149127	     61.67507811	    115.62101546	     94.18040131	     42.01560893	     -1.16793120	     66.67944572	    125.31980408	     99.20949084
